#!OML:ASF F:\VICON\USERDATA\INSTALL\Justin_Nancy\Justin_Nancy.ASF
:FULLY-SPECIFIED
:DEGREES
195
root -9.43061 17.5368 -7.03786 1.47305 -6.0937 -3.09094
lowerback 6.37232 1.83397 2.62086
upperback 0.23101 2.72433 2.69075
thorax -3.34377 1.33212 1.05904
lowerneck -18.2504 -3.69118 -8.76367
upperneck 21.8009 -3.76273 4.68485
head 10.2471 -1.91511 2.58623
rclavicle -9.79014e-015 -3.81667e-014
rhumerus -23.8949 -6.73916 -80.8146
rradius 34.0605
rwrist 6.17703
rhand -12.9398 8.99962
rfingers 7.12502
rthumb 13.1513 -20.5656
lclavicle -9.79014e-015 -3.81667e-014
lhumerus -31.7243 13.729 85.2104
lradius 22.6474
lwrist -13.6197
lhand -20.959 13.4105
lfingers 7.12502
lthumb 5.41392 43.3214
rfemur 0.893473 1.26456 29.526
rtibia 19.0912
rfoot -14.197 -6.08204
rtoes 3.96996
lfemur -28.0951 -3.59048 -15.7722
ltibia 27.6056
lfoot -9.39744 8.0942
ltoes -7.94014
196
root -9.42874 17.5232 -6.9123 1.59961 -6.13478 -3.03768
lowerback 6.1893 1.83976 2.53763
upperback 0.256565 2.71564 2.65237
thorax -3.21653 1.33023 1.0733
lowerneck -18.3182 -3.60917 -8.80755
upperneck 21.7966 -3.656 4.79548
head 10.2528 -1.85572 2.6484
rclavicle 1.02374e-014 -2.3059e-014
rhumerus -23.6995 -6.30144 -80.9426
rradius 34.3191
rwrist 5.40641
rhand -13.2791 9.2002
rfingers 7.12502
rthumb 12.8242 -20.3859
lclavicle 1.02374e-014 -2.3059e-014
lhumerus -31.7582 13.7769 85.2579
lradius 22.6026
lwrist -13.414
lhand -18.6452 19.0161
lfingers 7.12502
lthumb 7.64758 48.8578
rfemur 1.28065 1.17806 29.3974
rtibia 18.9426
rfoot -14.3469 -6.02887
rtoes 2.97166
lfemur -28.0942 -3.65712 -15.9067
ltibia 25.8437
lfoot -9.51584 8.42157
ltoes -8.86898
197
root -9.42744 17.5133 -6.78712 1.86763 -6.21851 -3.0615
lowerback 6.01133 1.83717 2.56142
upperback 0.113362 2.70974 2.59107
thorax -3.2607 1.32578 1.00081
lowerneck -18.3048 -3.55727 -8.74113
upperneck 21.976 -3.60698 4.78579
head 10.3095 -1.83116 2.64341
rclavicle 1.6847e-014 -7.15625e-015
rhumerus -23.6824 -5.97942 -81.0906
rradius 34.6408
rwrist 5.03698
rhand -12.9452 7.95605
rfingers 7.12502
rthumb 13.146 -21.6095
lclavicle 1.6847e-014 -7.15625e-015
lhumerus -32.0489 13.8243 85.1296
lradius 22.6331
lwrist -13.5555
lhand -13.4341 28.0472
lfingers 7.12502
lthumb 12.6747 57.6426
rfemur 1.50922 1.39962 29.3882
rtibia 18.8877
rfoot -14.7361 -6.08792
rtoes 2.84991
lfemur -28.3363 -3.79873 -15.9226
ltibia 24.299
lfoot -9.64397 8.8605
ltoes -9.9338
198
root -9.42311 17.5159 -6.652 1.9862 -6.34858 -3.14191
lowerback 5.84042 1.87176 2.61631
upperback 0.0937133 2.7527 2.59079
thorax -3.18256 1.34705 0.971798
lowerneck -18.3521 -3.62312 -8.69738
upperneck 22.1347 -3.69337 4.71046
head 10.3803 -1.87735 2.59784
rclavicle -8.89561e-015 7.95139e-016
rhumerus -23.4485 -5.92194 -81.1256
rradius 34.7022
rwrist 5.05699
rhand -12.7321 7.62639
rfingers 7.12502
rthumb 13.3514 -21.9259
lclavicle -8.89561e-015 7.95139e-016
lhumerus -32.0956 13.7874 85.1347
lradius 22.4535
lwrist -13.7545
lhand -20.967 13.15
lfingers 7.12502
lthumb 5.4062 43.0611
rfemur 1.82063 1.37128 29.3969
rtibia 18.8753
rfoot -14.8131 -5.91775
rtoes 1.82173
lfemur -28.4518 -4.15266 -15.8081
ltibia 22.9821
lfoot -9.95031 9.47956
ltoes -8.59473
199
root -9.42143 17.5209 -6.52253 1.99769 -6.3666 -3.40427
lowerback 5.79999 1.85952 2.7865
upperback 0.129434 2.74692 2.67262
thorax -3.11916 1.34287 0.96381
lowerneck -18.2048 -3.65891 -8.6395
upperneck 21.9424 -3.75993 4.67285
head 10.286 -1.90718 2.56374
rclavicle 2.16675e-014 -1.19271e-014
rhumerus -23.1423 -5.9523 -81.1668
rradius 34.3777
rwrist 4.6879
rhand -13.1861 9.14764
rfingers 7.12502
rthumb 12.9138 -20.4328
lclavicle 2.16675e-014 -1.19271e-014
lhumerus -32.034 13.6884 85.2751
lradius 22.4589
lwrist -13.4038
lhand -18.8915 18.8472
lfingers 7.12502
lthumb 7.40987 48.6975
rfemur 2.2481 1.09182 29.618
rtibia 18.7434
rfoot -14.4014 -5.77374
rtoes 0.991645
lfemur -28.4684 -4.63769 -15.4514
ltibia 22.0297
lfoot -10.5189 9.94776
ltoes -7.88949
